<svg xmlns="http://www.w3.org/2000/svg" width="89" height="90" viewBox="0 0 89 90">
  <g id="Group_471" data-name="Group 471" transform="translate(-111 -957.438)">
    <path id="Rectangle_1008" data-name="Rectangle 1008" d="M0,0H69A20,20,0,0,1,89,20V90a0,0,0,0,1,0,0H20A20,20,0,0,1,0,70V0A0,0,0,0,1,0,0Z" transform="translate(111 957.438)" fill="#f0f5ff"/>
    <g id="file_2_" data-name="file (2)" transform="translate(100.977 975.438)">
      <path id="Path_7463" data-name="Path 7463" d="M31.817,28.206a.794.794,0,0,0,.794-.794V5.027a3.444,3.444,0,0,1,3.44-3.44H54.17a2.4,2.4,0,0,1,.523.059V6.139a.794.794,0,0,0,1.588,0V2.713l11.2,11.22H58.349a2.074,2.074,0,0,1-2.068-2.075V9.843a.794.794,0,0,0-1.588,0v2.015a3.663,3.663,0,0,0,3.656,3.662H68.538a2.394,2.394,0,0,1,.059.519v6.927a.794.794,0,0,0,1.588,0V16.04a3.943,3.943,0,0,0-1.159-2.8L56.979,1.166A3.942,3.942,0,0,0,54.17,0H36.05a5.033,5.033,0,0,0-5.027,5.027V27.413a.794.794,0,0,0,.794.794Z" fill="#00366c"/>
      <path id="Path_7464" data-name="Path 7464" d="M89.225,144.088h13.092a.794.794,0,1,0,0-1.588H89.225a.794.794,0,1,0,0,1.588Z" transform="translate(-51.332 -127.418)" fill="#00366c"/>
      <path id="Path_7465" data-name="Path 7465" d="M89.225,322.5a.794.794,0,1,0,0,1.588h13.092a.794.794,0,1,0,0-1.588Z" transform="translate(-51.332 -288.367)" fill="#00366c"/>
      <path id="Path_7466" data-name="Path 7466" d="M110.933,202.5H87.225a.794.794,0,1,0,0,1.588h23.708a.794.794,0,1,0,0-1.588Z" transform="translate(-49.544 -181.067)" fill="#00366c"/>
      <path id="Path_7467" data-name="Path 7467" d="M111.727,263.294a.794.794,0,0,0-.794-.794H87.225a.794.794,0,0,0,0,1.588h23.708A.794.794,0,0,0,111.727,263.294Z" transform="translate(-49.544 -234.717)" fill="#00366c"/>
      <path id="Path_7468" data-name="Path 7468" d="M70.184,250.156v-4.862a.794.794,0,1,0-1.588,0v4.541a11.541,11.541,0,0,0-13.023,11.441,11.468,11.468,0,0,0,1.03,4.763H36.05a3.444,3.444,0,0,1-3.44-3.44v-12.86a.794.794,0,0,0-1.588,0V262.6a5.033,5.033,0,0,0,5.027,5.027H57.483a11.532,11.532,0,0,0,16.389,3,.794.794,0,1,0-.931-1.286,9.949,9.949,0,1,1-3.713-17.783h0a9.951,9.951,0,0,1,6.128,15.282.794.794,0,0,0,1.316.889,11.539,11.539,0,0,0-6.491-17.571Z" transform="translate(0 -218.622)" fill="#00366c"/>
      <path id="Path_7469" data-name="Path 7469" d="M317.871,357.292a2.384,2.384,0,0,0,2.381-2.381v-3.478l.489.27a2.381,2.381,0,0,0,2.3-4.169l-4.022-2.223a2.393,2.393,0,0,0-2.3,0l-4.022,2.223A2.381,2.381,0,0,0,315,351.7l.489-.27v3.478A2.384,2.384,0,0,0,317.871,357.292Zm-3.638-6.979a.794.794,0,1,1-.768-1.39l4.022-2.223a.812.812,0,0,1,.8.017l3.991,2.206a.794.794,0,1,1-.768,1.389l-1.666-.921a.8.8,0,0,0-1.178.695v4.823a.794.794,0,1,1-1.588,0v-4.823a.8.8,0,0,0-1.178-.695Z" transform="translate(-250.762 -308.5)" fill="#00366c"/>
    </g>
  </g>
</svg>
